<svg class="img-fluid" id="outputsvg" xmlns="http://www.w3.org/2000/svg" style="transform: none; transform-origin: 50% 50%; cursor: move; max-height: none; transition: none;" width="1000" height="1000" viewBox="0 0 10000 10000"><g id="l2gQbRBwqfoIj8dqgxbNb2M" fill="rgb(5,100,180)" style="transform: none;"><g style="transform: none;"><path id="pjtCDLktY" d="M8849 8750 c-50 -15 -117 -61 -142 -98 -41 -60 -47 -103 -47 -329 l0 -213 60 0 60 0 0 205 c0 197 1 208 24 253 68 132 239 111 292 -36 9 -26 13 -97 14 -229 l0 -193 60 0 60 0 0 203 c0 225 -8 274 -59 344 -19 27 -51 51 -92 72 -53 26 -73 31 -133 30 -39 0 -83 -4 -97 -9z"></path><path id="p11Cje6XrU" d="M730 8429 l0 -321 178 4 c175 3 178 3 232 33 153 84 156 278 6 362 -46 25 -63 29 -171 33 l-120 5 -3 103 -3 102 -59 0 -60 0 0 -321z m371 -37 c32 -36 36 -69 15 -111 -20 -38 -58 -52 -153 -59 -110 -7 -113 -3 -113 108 0 47 3 90 8 94 4 4 54 6 110 4 103 -3 104 -3 133 -36z"></path><path id="p1icvfaZ8" d="M1540 8485 l0 -265 -100 0 -100 0 0 -55 0 -55 265 0 265 0 0 55 0 54 -97 3 -98 3 -3 263 -2 262 -65 0 -65 0 0 -265z"></path><path id="pVgW0K8C0" d="M2270 8429 l0 -321 178 4 c169 3 179 5 229 31 113 59 151 174 93 287 -40 78 -117 110 -266 110 l-104 0 0 105 0 105 -65 0 -65 0 0 -321z m371 -37 c63 -70 21 -154 -84 -167 -29 -4 -74 -5 -102 -3 l-50 3 -3 103 -3 104 106 -4 c106 -3 107 -3 136 -36z"></path><path id="px9hJDQ6K" d="M2920 8429 l0 -321 173 4 c190 4 224 13 286 71 43 41 61 84 61 144 -1 63 -28 122 -75 157 -58 45 -99 55 -217 56 l-108 0 0 105 0 105 -60 0 -60 0 0 -321z m341 -15 c36 -18 59 -67 52 -107 -12 -61 -93 -93 -218 -85 l-50 3 -3 103 -3 102 96 0 c68 0 105 -5 126 -16z"></path><path id="p15Sg8op4i" d="M4008 8488 l-3 -263 -102 -3 -103 -3 0 -54 0 -55 265 0 265 0 0 55 0 54 -97 3 -98 3 -3 263 -2 262 -60 0 -60 0 -2 -262z"></path><path id="p0C43biDK" d="M4460 8430 l0 -320 60 0 60 0 0 320 0 320 -60 0 -60 0 0 -320z"></path><path id="pdpNNT9kw" d="M4750 8429 l0 -321 173 4 c159 3 176 5 220 28 114 58 150 163 99 292 -6 15 -36 44 -66 64 -64 42 -64 36 14 139 48 64 70 98 70 109 0 3 -29 6 -64 6 l-64 0 -58 -82 c-32 -46 -64 -89 -71 -96 -7 -7 -13 -18 -13 -23 0 -5 -27 -9 -60 -9 l-60 0 0 105 0 105 -60 0 -60 0 0 -321z m361 -37 c32 -36 36 -69 14 -111 -20 -40 -66 -56 -165 -56 l-85 0 -3 103 -3 104 106 -4 c106 -3 107 -3 136 -36z"></path><path id="p19sKNyOcc" d="M5580 8497 c0 -183 -3 -256 -12 -265 -8 -8 -46 -12 -105 -12 l-93 0 0 -55 0 -55 265 0 265 0 0 55 0 54 -97 3 -98 3 -3 263 -2 262 -60 0 -60 0 0 -253z"></path><path id="p11uAOfZWZ" d="M5954 8687 c13 -35 39 -97 56 -138 18 -41 45 -108 61 -149 15 -41 45 -115 67 -165 21 -49 42 -98 45 -107 5 -15 19 -18 75 -18 l68 0 52 118 c29 64 52 121 52 125 0 5 25 68 56 140 31 73 66 160 79 195 l23 63 -70 -3 -70 -3 -18 -45 -18 -45 -154 -3 -155 -2 -15 47 -15 48 -72 3 -71 3 24 -64z m406 -153 c0 -8 -5 -25 -12 -37 -6 -12 -26 -60 -43 -106 -17 -47 -37 -87 -43 -89 -7 -2 -17 9 -23 25 -100 247 -102 223 20 223 85 0 101 -2 101 -16z"></path><path id="pjaOTkxWr" d="M6980 8429 l0 -321 178 4 c190 4 202 7 280 66 58 44 79 117 61 203 -11 52 -59 109 -111 132 -16 6 -28 16 -27 22 0 5 20 37 45 70 24 33 58 79 74 103 l31 42 -70 0 -70 0 -56 -77 c-31 -43 -64 -90 -73 -105 -15 -25 -22 -28 -74 -28 l-58 0 0 105 0 105 -65 0 -65 0 0 -321z m371 -37 c32 -36 36 -69 14 -111 -20 -40 -66 -56 -165 -56 l-85 0 -3 103 -3 104 106 -4 c106 -3 107 -3 136 -36z"></path><path id="pbkoqUiLa" d="M7640 8430 l0 -320 60 0 60 0 0 320 0 320 -60 0 -60 0 0 -320z"></path><path id="pCfbbQnID" d="M7894 8718 c7 -18 28 -69 46 -113 18 -44 59 -144 91 -222 32 -78 59 -146 59 -151 0 -5 12 -35 26 -66 l26 -57 71 3 71 3 27 65 c79 190 105 255 145 357 24 62 49 125 57 140 37 71 36 73 -41 73 l-69 0 -21 -50 -21 -50 -150 0 -150 0 -22 50 -21 50 -69 0 -69 0 14 -32z m420 -176 c6 -10 -94 -242 -104 -242 -8 0 -100 216 -100 236 0 11 20 14 99 14 55 0 102 -4 105 -8z"></path><path id="pynbVBTxJ" d="M7255 7459 c-276 -19 -618 -74 -930 -150 -335 -81 -572 -151 -1145 -340 -274 -90 -521 -168 -565 -178 -22 -5 -112 -30 -200 -56 -88 -25 -191 -53 -230 -60 -38 -8 -135 -30 -215 -48 -220 -52 -537 -99 -865 -128 -283 -25 -824 -10 -1105 31 -35 5 -65 8 -67 7 -5 -6 338 -118 522 -171 174 -50 449 -116 635 -152 106 -21 438 -61 615 -75 93 -7 255 -9 425 -6 639 13 1139 126 2025 457 682 255 1171 392 1560 436 186 21 636 29 790 15 292 -27 343 -33 444 -52 98 -18 318 -68 471 -106 36 -9 124 -36 197 -60 73 -23 135 -43 139 -43 18 0 -423 224 -586 297 -665 300 -1295 426 -1915 382z"></path><path id="p6TntGIHk" d="M5470 7383 c-517 -82 -1401 -207 -1570 -223 -641 -60 -725 -67 -1030 -80 -496 -21 -927 -7 -1490 50 -311 32 -442 49 -645 86 -163 30 -261 48 -445 79 -33 6 -33 5 10 -13 285 -122 968 -332 1246 -383 563 -102 723 -119 1144 -119 396 0 557 15 1005 91 392 67 1044 246 1604 442 79 27 165 56 190 63 44 12 34 16 -19 7z"></path><path id="pCZzCejmE" d="M8025 6824 c-16 -3 -106 -14 -200 -25 -158 -19 -209 -30 -590 -129 -39 -10 -129 -39 -200 -64 -72 -26 -161 -58 -200 -72 -75 -26 -120 -50 -75 -40 194 45 537 110 715 135 270 39 728 65 1025 58 233 -6 567 -30 658 -46 26 -5 48 -8 50 -7 3 4 -58 30 -173 72 -251 92 -391 115 -730 119 -137 2 -263 1 -280 -1z"></path><path id="pftg5d1IQ" d="M7425 6146 c-78 -20 -185 -80 -237 -133 -56 -58 -112 -166 -128 -248 -39 -191 41 -493 252 -950 28 -60 56 -126 63 -145 7 -19 27 -66 45 -105 18 -38 49 -122 70 -185 21 -63 41 -108 44 -100 3 8 30 83 60 165 30 83 74 193 99 245 24 52 50 111 57 130 7 19 30 69 50 110 70 140 168 430 185 542 19 126 21 266 4 333 -59 239 -325 400 -564 341z m162 -91 c25 -17 32 -47 21 -89 -10 -38 -32 -53 -91 -61 -175 -23 -287 -176 -287 -391 0 -87 34 -325 54 -382 11 -32 12 -42 3 -39 -14 4 -90 201 -119 312 -18 65 -22 110 -22 240 -1 157 0 161 27 214 35 66 122 152 184 182 48 23 141 40 183 32 14 -2 35 -11 47 -18z"></path></g></g><g id="l57rivjLZYetqIR9tXLgMjL" fill="rgb(255,190,20)" style="transform: none;"><g style="transform: none;"><path id="pwaoabK5v" d="M2385 5905 c110 -103 405 -409 520 -539 247 -279 356 -411 515 -619 110 -145 131 -174 244 -334 38 -54 82 -116 98 -138 28 -40 116 -174 222 -337 31 -48 56 -90 56 -94 0 -3 20 -36 44 -73 24 -36 60 -97 81 -136 20 -38 41 -75 47 -82 38 -47 359 -682 433 -858 137 -324 196 -478 274 -713 91 -274 166 -546 196 -712 58 -311 75 -418 81 -492 4 -43 11 -78 16 -78 8 0 701 692 798 798 25 26 81 86 124 133 142 152 167 180 337 383 122 146 267 352 364 516 69 116 179 355 195 422 5 24 19 77 30 118 71 260 69 552 -5 860 -38 158 -43 173 -101 325 -63 163 -156 361 -231 492 -29 51 -53 95 -53 99 0 7 -107 185 -165 274 -137 210 -222 339 -245 370 -15 19 -71 97 -125 173 -54 76 -99 136 -100 135 -2 -2 -13 -32 -25 -68 -46 -139 -137 -251 -261 -323 -62 -37 -214 -84 -329 -104 -184 -31 -499 -20 -785 28 -66 11 -163 27 -215 35 -83 12 -323 68 -585 135 -253 64 -892 268 -1200 381 -60 22 -166 60 -235 84 l-125 43 110 -104z"></path><path id="pBZUftV0x" d="M4425 5855 c-100 -100 -259 -216 -347 -254 l-43 -18 150 -36 c147 -36 338 -77 342 -74 4 5 7 476 3 479 -3 1 -50 -42 -105 -97z"></path><path id="pROaEIfgq" d="M2030 5503 c0 -6 9 -18 20 -28 11 -10 62 -75 112 -144 50 -69 114 -157 142 -195 28 -38 60 -84 71 -101 11 -18 46 -72 79 -121 32 -49 77 -118 101 -154 56 -86 175 -286 175 -294 0 -3 17 -34 38 -68 70 -116 322 -628 322 -655 0 -4 18 -51 41 -103 51 -117 175 -495 195 -593 8 -39 21 -97 29 -127 60 -236 86 -459 86 -729 l0 -214 255 254 c141 140 319 321 396 402 l141 148 29 142 c37 192 37 219 -8 293 -20 32 -52 91 -71 129 -20 39 -57 106 -83 150 -47 80 -113 190 -160 270 -64 108 -174 282 -190 300 -10 11 -31 41 -47 67 -25 43 -140 209 -233 337 -75 103 -271 359 -319 416 -28 33 -76 91 -108 129 -83 98 -201 233 -318 364 -29 32 -34 34 -150 48 -66 8 -174 23 -240 34 -66 10 -156 24 -199 30 -44 7 -86 14 -93 17 -7 3 -13 1 -13 -4z"></path></g></g></svg>